# xmcd CD database file
#
# Track frame offsets:
#	150
#	12570
#	24902
#	36417
#	48342
#	61012
#	73407
#	85122
#	96877
#	109172
#	122015
#	134612
#	147705
#	159812
#	173085
#	186465
#	198230
#	211482
#
# Disc length: 2999 seconds
#
# Revision: 0
# Processed by: cddbd v1.5.2PL0 Copyright (c) Steve Scherf et al.
# Submitted via: CDex 1.77
#
DISCID=070bb512
DTITLE=Hank Williams - Honky - tonkin
DYEAR=1947
DGENRE=Country
TTITLE0=My sweet love ain't around
TTITLE1=The blues come around
TTITLE2=A mansion on the hill
TTITLE3=I'll be a bachelor 'til I die
TTITLE4=There'll be no teardrops tonight
TTITLE5=Lovestick blues
TTITLE6=Lost on the river
TTITLE7=I heard my mother praying for me
TTITLE8=Lost highway
TTITLE9=May you never be alone
TTITLE10=Dear brother
TTITLE11=Jesus remembered me
TTITLE12=Honky Tonk blues
TTITLE13=Mind your own business
TTITLE14=You're gonna change (or I'm gonna leave)
TTITLE15=My son calls another man daddy
TTITLE16=Wdding bells
TTITLE17=I've just told mama goodbye
EXTD=YEAR: 1947
EXTT0=
EXTT1=
EXTT2=
EXTT3=
EXTT4=
EXTT5=
EXTT6=
EXTT7=
EXTT8=
EXTT9=
EXTT10=
EXTT11=
EXTT12=
EXTT13=
EXTT14=
EXTT15=
EXTT16=
EXTT17=
PLAYORDER=
